<svg width="20" height="20" viewBox="0 0 20 20" fill="none" xmlns="http://www.w3.org/2000/svg">
<path d="M4.28601 5.71399H10V7.14299H4.28601V5.71399Z" fill="white"/>
<path d="M4.28601 2.85699H12.857V4.28599H4.28601V2.85699Z" fill="white"/>
<path d="M4.28601 0H12.857V1.429H4.28601V0Z" fill="white"/>
<path d="M1.937 18.571L5.959 11.431L11.269 16.067C11.4296 16.2092 11.6201 16.3134 11.8264 16.372C12.0327 16.4305 12.2496 16.4418 12.4609 16.4051C12.6722 16.3684 12.8725 16.2847 13.047 16.16C13.2216 16.0353 13.3658 15.873 13.469 15.685L18.447 8.255L17.26 7.455L12.26 14.918L12.21 14.992L6.9 10.356C6.73963 10.2138 6.54935 10.1095 6.34324 10.0508C6.13713 9.99207 5.92045 9.98042 5.70923 10.0167C5.49801 10.053 5.29765 10.1363 5.12296 10.2605C4.94827 10.3846 4.80372 10.5465 4.7 10.734L1.426 16.554V0H0V18.571C0.000264882 18.9499 0.150905 19.3132 0.418837 19.5812C0.686769 19.8491 1.05009 19.9997 1.429 20H20V18.571H1.937Z" fill="white"/>
</svg>
