<svg width="22" height="20" viewBox="0 0 22 20" fill="none" xmlns="http://www.w3.org/2000/svg">
<path fill-rule="evenodd" clip-rule="evenodd" d="M0.043 0.714C0.043 0.620236 0.0614681 0.52739 0.09735 0.440764C0.133232 0.354137 0.185825 0.275427 0.252126 0.209126C0.318427 0.142825 0.397138 0.0902318 0.483764 0.0543499C0.57039 0.018468 0.663236 4.9944e-10 0.757 4.9944e-10H2.9C3.05944 -5.96099e-06 3.2143 0.0533571 3.3399 0.151585C3.46549 0.249812 3.55459 0.387251 3.593 0.542L4.172 2.858H20.757C20.8655 2.85796 20.9726 2.88265 21.0701 2.9302C21.1677 2.97775 21.2531 3.04691 21.3199 3.13242C21.3867 3.21793 21.4332 3.31754 21.4557 3.42369C21.4782 3.52983 21.4763 3.63972 21.45 3.745L19.307 12.316C19.2686 12.4707 19.1795 12.6082 19.0539 12.7064C18.9283 12.8046 18.7734 12.858 18.614 12.858H5.757C5.59756 12.858 5.4427 12.8046 5.3171 12.7064C5.19151 12.6082 5.10241 12.4707 5.064 12.316L2.343 1.429H0.757C0.663152 1.429 0.570225 1.4105 0.483533 1.37455C0.396841 1.33861 0.318086 1.28593 0.251772 1.21952C0.185458 1.15311 0.132886 1.07429 0.0970627 0.987543C0.0612397 0.900801 0.0428685 0.807848 0.043 0.714ZM4.529 4.286L6.315 11.429H18.058L19.843 4.286H4.529ZM7.186 15.714C6.90337 15.714 6.62709 15.7978 6.39209 15.9548C6.15709 16.1119 5.97393 16.335 5.86578 16.5961C5.75762 16.8573 5.72932 17.1446 5.78446 17.4218C5.8396 17.699 5.9757 17.9536 6.17554 18.1535C6.37539 18.3533 6.63002 18.4894 6.90722 18.5445C7.18441 18.5997 7.47174 18.5714 7.73285 18.4632C7.99397 18.3551 8.21715 18.1719 8.37417 17.9369C8.53119 17.7019 8.615 17.4256 8.615 17.143C8.615 16.764 8.46445 16.4005 8.19646 16.1325C7.92847 15.8646 7.56499 15.714 7.186 15.714ZM4.329 17.143C4.329 16.5779 4.49656 16.0256 4.81049 15.5557C5.12442 15.0859 5.57062 14.7197 6.09267 14.5035C6.61472 14.2872 7.18917 14.2307 7.74337 14.3409C8.29758 14.4511 8.80665 14.7232 9.2062 15.1228C9.60576 15.5224 9.87787 16.0314 9.9881 16.5856C10.0983 17.1398 10.0418 17.7143 9.82552 18.2363C9.60928 18.7584 9.2431 19.2046 8.77326 19.5185C8.30343 19.8324 7.75106 20 7.186 20C6.42828 20 5.70159 19.699 5.1658 19.1632C4.63 18.6274 4.329 17.9007 4.329 17.143ZM17.186 15.714C16.9034 15.714 16.6271 15.7978 16.3921 15.9548C16.1571 16.1119 15.9739 16.335 15.8658 16.5961C15.7576 16.8573 15.7293 17.1446 15.7845 17.4218C15.8396 17.699 15.9757 17.9536 16.1755 18.1535C16.3754 18.3533 16.63 18.4894 16.9072 18.5445C17.1844 18.5997 17.4717 18.5714 17.7329 18.4632C17.994 18.3551 18.2171 18.1719 18.3742 17.9369C18.5312 17.7019 18.615 17.4256 18.615 17.143C18.615 16.764 18.4644 16.4005 18.1965 16.1325C17.9285 15.8646 17.565 15.714 17.186 15.714ZM14.329 17.143C14.329 16.5779 14.4966 16.0256 14.8105 15.5557C15.1244 15.0859 15.5706 14.7197 16.0927 14.5035C16.6147 14.2872 17.1892 14.2307 17.7434 14.3409C18.2976 14.4511 18.8066 14.7232 19.2062 15.1228C19.6058 15.5224 19.8779 16.0314 19.9881 16.5856C20.0983 17.1398 20.0418 17.7143 19.8255 18.2363C19.6093 18.7584 19.2431 19.2046 18.7733 19.5185C18.3034 19.8324 17.7511 20 17.186 20C16.8108 20 16.4393 19.9261 16.0927 19.7825C15.746 19.6389 15.4311 19.4285 15.1658 19.1632C14.9005 18.8979 14.6901 18.583 14.5465 18.2363C14.4029 17.8897 14.329 17.5182 14.329 17.143Z" fill="white"/>
</svg>
