<svg width="23" height="24" viewBox="0 0 23 24" fill="none" xmlns="http://www.w3.org/2000/svg">
<mask id="mask0_15_742" style="mask-type:luminance" maskUnits="userSpaceOnUse" x="0" y="0" width="23" height="24">
<path d="M17.4839 21.404L17.1508 18.382L20.144 14.1071C21.674 12.2291 23.61 7.87796 20.572 4.23996L20.5798 4.22726C20.7762 3.95378 20.9169 3.64396 20.9936 3.31613C21.0703 2.9883 21.0815 2.64882 21.0268 2.31662C20.9721 1.98441 20.8525 1.66603 20.6748 1.38009C20.497 1.09416 20.2646 0.84619 19.9909 0.650113C19.4295 0.266439 18.7388 0.121344 18.0705 0.246793C17.4022 0.372242 16.811 0.757913 16.427 1.31906L16.4189 1.33127C11.9669 -0.268735 8.53984 3.03112 7.29684 5.10812L4.30295 9.38498L1.34884 10.1062C1.07097 10.1642 0.815855 10.3011 0.613981 10.5007C0.412106 10.7003 0.272122 10.954 0.210905 11.2312C0.14787 11.505 0.167727 11.7913 0.267789 12.0539C0.367852 12.3165 0.543618 12.5438 0.772916 12.7063L5.23092 15.8293C4.90763 16.5622 4.84707 17.3841 5.05929 18.1565C5.27152 18.9289 5.74358 19.6043 6.39596 20.0691C7.05573 20.524 7.85227 20.7373 8.65109 20.6726C9.44991 20.6079 10.202 20.2693 10.78 19.7141L15.238 22.8361C15.4688 22.9961 15.7419 23.0836 16.0227 23.0881C16.3034 23.0926 16.5792 23.0136 16.8149 22.861C17.0546 22.7081 17.2451 22.4896 17.3637 22.2312C17.4824 21.9728 17.5241 21.6855 17.4839 21.404ZM7.23898 18.8659C6.9007 18.6252 6.64412 18.2869 6.50363 17.8962C6.36314 17.5055 6.34533 17.0809 6.45285 16.6799L9.561 18.8581C9.221 19.0957 8.81637 19.2239 8.40158 19.2253C7.98679 19.2267 7.58061 19.1012 7.23898 18.8659ZM11.6838 18.5539L6.00998 14.5803L6.00192 14.5891L1.60202 11.5349L5.15085 10.6692L8.4819 5.9089L8.51193 5.863C9.08768 4.96694 9.81914 4.18139 10.6718 3.54318C11.461 2.90687 12.4147 2.50773 13.4218 2.3923C14.429 2.27687 15.4481 2.44957 16.3608 2.89084L16.904 3.13302L17.5969 2.14425C17.7636 1.90049 18.0203 1.73269 18.3105 1.67795C18.6007 1.6232 18.9009 1.686 19.145 1.85226C19.3846 2.02495 19.5459 2.28539 19.5937 2.57687C19.6415 2.86835 19.5718 3.16677 19.3999 3.40695L18.707 4.39621L19.1198 4.82101C22.7328 8.55701 19.1659 13.0271 19.0139 13.2141L15.6469 18.0202L16.042 21.6101L11.6838 18.5539ZM16.0488 21.6101H16.0798V21.6311L16.0488 21.6101Z" fill="white"/>
</mask>
<g mask="url(#mask0_15_742)">
<mask id="mask1_15_742" style="mask-type:luminance" maskUnits="userSpaceOnUse" x="-1509" y="-46" width="2207" height="1054">
<path d="M-1508.35 1007.77H697.433V-45.839H-1508.35V1007.77Z" fill="white"/>
</mask>
<g mask="url(#mask1_15_742)">
<path d="M10.1879 -13.2301L36.3881 5.11804L16.204 33.9471L-9.99597 15.601L10.1879 -13.2301Z" fill="#00549D"/>
</g>
</g>
</svg>
