<svg width="20" height="19" viewBox="0 0 20 19" fill="none" xmlns="http://www.w3.org/2000/svg">
<g clip-path="url(#clip0_15_267)">
<path d="M19 17H9C8.44772 17 8 17.4477 8 18C8 18.5523 8.44772 19 9 19H19C19.5523 19 20 18.5523 20 18C20 17.4477 19.5523 17 19 17Z" fill="#0051A4"/>
<path d="M19 0H6C5.44772 0 5 0.447715 5 1C5 1.55228 5.44772 2 6 2H19C19.5523 2 20 1.55228 20 1C20 0.447715 19.5523 0 19 0Z" fill="#0051A4"/>
<path d="M19 9H1C0.447715 9 0 9.44772 0 10C0 10.5523 0.447715 11 1 11H19C19.5523 11 20 10.5523 20 10C20 9.44772 19.5523 9 19 9Z" fill="#0051A4"/>
</g>
<defs>
<clipPath id="clip0_15_267">
<rect width="20" height="19" fill="white"/>
</clipPath>
</defs>
</svg>
