<svg width="20" height="23" viewBox="0 0 20 23" fill="none" xmlns="http://www.w3.org/2000/svg">
<path d="M19.538 9.539L10.673 1.382C10.3848 1.1172 10.0055 0.973946 9.61416 0.982145C9.22287 0.990344 8.84986 1.14936 8.573 1.426L0.418 9.579L0 9.997V22.017H7.857V14.517H12.143V22.017H20V9.963L19.538 9.539ZM9.644 2.41C9.657 2.41 9.649 2.41 9.644 2.418C9.639 2.426 9.632 2.41 9.644 2.41ZM18.571 20.59H13.571V14.518C13.571 14.139 13.4204 13.7755 13.1525 13.5075C12.8845 13.2396 12.521 13.089 12.142 13.089H7.857C7.47801 13.089 7.11453 13.2396 6.84654 13.5075C6.57855 13.7755 6.428 14.139 6.428 14.518V20.59H1.428V10.59L9.644 2.439L18.57 10.594L18.571 20.59Z" fill="#FDB913"/>
</svg>
