<svg width="90" height="22" viewBox="0 0 90 22" fill="none" xmlns="http://www.w3.org/2000/svg">
<path d="M11.107 7.92702C10.6848 7.55817 10.206 7.25968 9.68895 7.04303C9.08564 6.79057 8.46077 6.59311 7.82195 6.45302C6.97538 6.26722 6.14709 6.00618 5.34695 5.67303C5.12663 5.6048 4.93247 5.47079 4.79053 5.28899C4.6486 5.10719 4.56569 4.88631 4.55295 4.65602C4.55401 4.47867 4.59795 4.3042 4.681 4.14749C4.76406 3.99078 4.88378 3.85647 5.02995 3.75603C5.54296 3.46305 6.13366 3.33492 6.72195 3.38903C7.44136 3.37386 8.15758 3.48905 8.83595 3.72903C9.3509 3.91033 9.83795 4.16278 10.283 4.47903L12.05 2.03303C11.3647 1.52075 10.5951 1.13223 9.77595 0.885025C8.78164 0.609694 7.75245 0.481004 6.72095 0.503025C6.04136 0.504807 5.36551 0.60381 4.71395 0.797025C4.07333 0.980612 3.46581 1.26446 2.91395 1.63803C2.3927 1.9917 1.95374 2.45351 1.62695 2.99203C1.29479 3.54752 1.12471 4.18489 1.13595 4.83203C1.11881 5.43428 1.26387 6.03006 1.55595 6.55702C1.83087 7.03382 2.194 7.45395 2.62595 7.79502C3.04978 8.13283 3.52164 8.4055 4.02595 8.60402C4.49775 8.79198 4.98107 8.94964 5.47295 9.07603C6.08144 9.21049 6.68229 9.3774 7.27295 9.57603C7.63566 9.69571 7.98462 9.85359 8.31395 10.047C8.51997 10.1602 8.69008 10.3289 8.80495 10.534C8.88307 10.7043 8.92268 10.8897 8.92095 11.077C8.92722 11.2886 8.86622 11.4966 8.74672 11.6713C8.62722 11.846 8.45539 11.9782 8.25595 12.049C7.69353 12.2665 7.09252 12.3666 6.48995 12.343C5.72995 12.3576 4.97535 12.2124 4.27495 11.917C3.67538 11.665 3.13008 11.2997 2.66895 10.841L0.613953 13.111C1.28072 13.8505 2.12853 14.4036 3.07395 14.716C4.18234 15.0932 5.34727 15.2772 6.51795 15.26C7.27692 15.2655 8.03272 15.1615 8.76195 14.951C9.42279 14.7659 10.0485 14.473 10.614 14.084C11.1315 13.7275 11.5624 13.2593 11.875 12.714C12.1862 12.1614 12.3459 11.5363 12.338 10.902C12.3506 10.3114 12.2403 9.72467 12.014 9.17902C11.8038 8.70081 11.4927 8.27371 11.102 7.92702" fill="#00549E"/>
<path d="M20.9619 10.515L17.0839 1.05804H13.1459L19.2539 14.714L18.8199 15.814C18.586 16.4573 18.2693 17.0674 17.8779 17.629C17.7494 17.8121 17.5781 17.9609 17.3788 18.0625C17.1796 18.1641 16.9586 18.2155 16.7349 18.212C16.4302 18.2216 16.129 18.1439 15.8669 17.988C15.6465 17.8478 15.4341 17.6953 15.2309 17.531L13.6969 19.975C14.0951 20.3161 14.5523 20.5815 15.0459 20.758C15.6664 20.9612 16.3173 21.056 16.9699 21.038C17.7461 21.0696 18.5134 20.8642 19.1699 20.449C19.7565 20.0494 20.2542 19.5329 20.6319 18.932C21.0365 18.2971 21.3717 17.6205 21.6319 16.914C21.9029 16.188 22.1719 15.524 22.4429 14.836L28.1099 1.05804H24.3759L20.9619 10.515Z" fill="#00549E"/>
<path d="M37.3699 0.679008C36.8827 0.672272 36.3969 0.73216 35.9259 0.857008C35.5281 0.962814 35.1444 1.1159 34.7829 1.31301C34.4715 1.47941 34.1799 1.6807 33.9139 1.91301C33.694 2.12046 33.4866 2.34085 33.2929 2.57301L33.2059 1.05901H29.8699V14.807H33.3139V7.30701C33.3157 6.81903 33.4051 6.33534 33.5779 5.87901C33.7363 5.45203 33.9707 5.05731 34.2699 4.71401C34.5612 4.37826 34.922 4.10978 35.3272 3.92711C35.7324 3.74444 36.1725 3.65194 36.6169 3.65601C36.9508 3.64344 37.2836 3.70123 37.5937 3.82561C37.9038 3.94999 38.1843 4.1382 38.4169 4.37801C38.6597 4.65724 38.8441 4.98216 38.9595 5.33368C39.0749 5.68521 39.1189 6.05624 39.0889 6.42501V14.808H42.5329V6.39501C42.6201 4.89262 42.1549 3.41021 41.2249 2.22701C40.7398 1.69609 40.1414 1.28124 39.474 1.01325C38.8067 0.745263 38.0875 0.631023 37.3699 0.679008Z" fill="#00549E"/>
<path d="M52.423 15.261C51.4113 15.2725 50.4074 15.0825 49.47 14.702C48.6132 14.3498 47.8393 13.8225 47.198 13.154C46.5561 12.4728 46.0633 11.6653 45.751 10.783C45.4037 9.79967 45.2324 8.76281 45.245 7.72001C45.2361 6.74951 45.4077 5.78581 45.751 4.87801C46.0723 4.03255 46.5538 3.25704 47.169 2.59401C47.7842 1.94253 48.5242 1.42152 49.345 1.06201C50.2249 0.682322 51.1747 0.491543 52.133 0.502014C53.2209 0.469526 54.2998 0.707649 55.273 1.19501C56.0972 1.62711 56.8073 2.24843 57.345 3.00801C57.8825 3.774 58.2737 4.63277 58.499 5.54101C58.7395 6.48472 58.8644 7.45416 58.871 8.42801V8.94601H48.69C48.6754 9.42626 48.7905 9.90156 49.023 10.322C49.24 10.7266 49.535 11.0841 49.891 11.374C50.2521 11.671 50.6636 11.9007 51.106 12.052C51.5387 12.2049 51.994 12.284 52.453 12.286C53.0323 12.295 53.6104 12.2315 54.174 12.097C54.6071 11.9904 55.0288 11.8417 55.433 11.653C55.7387 11.5132 56.0256 11.3355 56.287 11.124C56.507 10.938 56.677 10.784 56.793 10.668L58.645 12.788L58.545 12.888L58.161 13.278C57.8204 13.6024 57.4416 13.8841 57.033 14.117C56.44 14.4552 55.8089 14.7217 55.153 14.911C54.2653 15.1622 53.3453 15.2802 52.423 15.261ZM52.133 3.42001C51.623 3.41206 51.1167 3.50801 50.645 3.70201C50.2425 3.87092 49.8744 4.11225 49.559 4.41401C49.2777 4.69136 49.0519 5.01992 48.894 5.38201C48.7348 5.72009 48.6561 6.09043 48.664 6.46401H55.321C55.3288 6.09348 55.2607 5.72527 55.121 5.38201C54.9861 5.02081 54.7842 4.68832 54.526 4.40201C54.2427 4.10428 53.9027 3.86627 53.526 3.70201C53.0878 3.5074 52.6123 3.41114 52.133 3.42001Z" fill="#00549E"/>
<path d="M66.9239 10.959L63.2779 1.05902H59.3409L65.1009 14.807H68.5729L74.3049 1.05902H70.5709L66.9239 10.959Z" fill="#00549E"/>
<path d="M82.2059 15.261C81.187 15.2726 80.1769 15.0716 79.2399 14.671C78.3714 14.2988 77.5885 13.7522 76.9399 13.065C76.2979 12.3816 75.7916 11.5825 75.4479 10.71C74.7328 8.8825 74.7328 6.85255 75.4479 5.02503C75.7894 4.15529 76.2957 3.35971 76.9389 2.68203C77.5925 2.00419 78.3748 1.46363 79.2399 1.09203C80.1768 0.691111 81.187 0.490159 82.2059 0.502027C83.2249 0.4901 84.2351 0.691054 85.1719 1.09203C86.0366 1.464 86.8185 2.00453 87.4719 2.68203C88.1142 3.3605 88.6203 4.15587 88.9629 5.02503C89.6762 6.8529 89.6762 8.88215 88.9629 10.71C88.6185 11.5821 88.1127 12.3814 87.4719 13.066C86.8232 13.753 86.0404 14.2996 85.1719 14.672C84.2349 15.0723 83.2248 15.2729 82.2059 15.261ZM82.2059 3.50803C81.6119 3.49456 81.0242 3.6322 80.4979 3.90803C80.0292 4.1625 79.6201 4.51398 79.2979 4.93903C78.9781 5.36382 78.7376 5.84283 78.5879 6.35303C78.4374 6.84476 78.3593 7.35578 78.3559 7.87003C78.3567 8.38938 78.4349 8.90572 78.5879 9.40203C78.7402 9.91213 78.9805 10.3917 79.2979 10.819C79.6163 11.2511 80.026 11.6075 80.4979 11.863C81.024 12.1395 81.6118 12.2772 82.2059 12.263C82.7997 12.2756 83.3869 12.1365 83.9119 11.859C84.3836 11.6031 84.7932 11.2467 85.1119 10.815C85.4285 10.3872 85.6688 9.90777 85.8219 9.39803C85.9728 8.90197 86.0503 8.38651 86.0519 7.86803C86.048 7.35398 85.9705 6.84314 85.8219 6.35103C85.6714 5.84118 85.4309 5.36232 85.1119 4.93703C84.7898 4.51091 84.3807 4.15811 83.9119 3.90203C83.3857 3.62861 82.7988 3.49305 82.2059 3.50803Z" fill="#00549E"/>
</svg>
