<svg width="29" height="31" viewBox="0 0 29 31" fill="none" xmlns="http://www.w3.org/2000/svg">
<path d="M3.03198 13.942C3.65826 14.3106 4.36672 14.5168 5.09298 14.542L12.951 14.55L9.05098 7.62498V7.62998C8.65079 6.97185 8.08523 6.42998 7.41059 6.05829C6.73596 5.6866 5.97575 5.49806 5.20561 5.5114C4.43547 5.52475 3.68225 5.73954 3.0209 6.13438C2.35955 6.52923 1.81312 7.09037 1.43598 7.76198C0.839445 8.79583 0.672454 10.0225 0.970913 11.1782C1.26937 12.3339 2.00944 13.3263 3.03198 13.942Z" fill="#00549E"/>
<path d="M10.185 4.5C10.1753 5.2352 10.3444 5.96173 10.678 6.617L14.624 13.556L18.573 6.656C18.9148 6.00308 19.0933 5.277 19.093 4.54C19.1015 3.34937 18.6387 2.2037 17.8055 1.35311C16.9724 0.502514 15.8365 0.0160807 14.646 0C14.0574 0.00183222 13.4749 0.119763 12.932 0.347038C12.389 0.574313 11.8962 0.906467 11.4819 1.32448C11.0675 1.74249 10.7396 2.23814 10.5171 2.78305C10.2945 3.32795 10.1817 3.91141 10.185 4.5Z" fill="#00549E"/>
<path d="M21.737 6.11402C21.1055 6.48472 20.5752 7.00543 20.193 7.63002L16.255 14.562L24.089 14.585V14.578C24.8141 14.5533 25.5214 14.347 26.146 13.978C27.171 13.3637 27.9159 12.3736 28.222 11.2185C28.5281 10.0633 28.3713 8.83433 27.785 7.79302C27.5039 7.27991 27.1228 6.82832 26.6643 6.46491C26.2058 6.1015 25.6791 5.83363 25.1153 5.67713C24.5516 5.52062 23.9622 5.47865 23.382 5.55369C22.8017 5.62873 22.2424 5.81925 21.737 6.11402Z" fill="#00549E"/>
<path d="M26.201 17.058C25.5745 16.6898 24.8662 16.4836 24.14 16.458L24.151 16.449L16.301 16.433L20.201 23.357C20.5583 23.9965 21.0881 24.5228 21.73 24.876C22.2351 25.1721 22.7942 25.3647 23.3746 25.4423C23.9549 25.5199 24.545 25.4811 25.1102 25.3282C25.6754 25.1752 26.2044 24.9112 26.6664 24.5514C27.1285 24.1917 27.5141 23.7435 27.801 23.233C28.3961 22.1992 28.5619 20.9732 28.2627 19.8186C27.9635 18.6639 27.2232 17.6726 26.201 17.058Z" fill="#00549E"/>
<path d="M19.0292 26.502C19.0303 25.764 18.8529 25.0366 18.5122 24.382H18.5202L14.6092 17.45L10.6752 24.35C10.335 25.0024 10.1547 25.7263 10.1492 26.462C10.139 27.6505 10.5994 28.7948 11.43 29.645C12.2605 30.4953 13.3937 30.9824 14.5822 31C15.17 30.9978 15.7516 30.8795 16.2936 30.6519C16.8356 30.4243 17.3273 30.0919 17.7405 29.6738C18.1537 29.2557 18.4802 28.7601 18.7013 28.2154C18.9225 27.6708 19.0339 27.0878 19.0292 26.5" fill="#00549E"/>
<path d="M7.502 24.885C8.13328 24.514 8.66355 23.9934 9.046 23.369V23.377L12.986 16.458L5.153 16.433C4.42935 16.4604 3.72343 16.6647 3.097 17.028C2.07221 17.6417 1.3274 18.6312 1.0211 19.7858C0.714803 20.9404 0.871199 22.169 1.457 23.21C1.73827 23.7226 2.11935 24.1736 2.57777 24.5365C3.03619 24.8994 3.56265 25.1668 4.12609 25.3229C4.68953 25.479 5.27854 25.5207 5.85836 25.4455C6.43817 25.3703 6.99705 25.1797 7.502 24.885Z" fill="#00549E"/>
</svg>
