<svg width="20" height="33" viewBox="0 0 20 33" fill="none" xmlns="http://www.w3.org/2000/svg">
<path d="M10.968 9.73699C10.5133 9.89041 10.0306 9.94304 9.55346 9.89124C9.07634 9.83943 8.61621 9.68443 8.20499 9.43699C7.72299 9.14799 7.58699 8.86499 7.77399 8.53699C7.96099 8.20899 8.26699 8.18799 8.74899 8.47999C9.07988 8.6815 9.4581 8.79207 9.84542 8.8005C10.2327 8.80893 10.6154 8.71493 10.9548 8.52801C11.2941 8.34109 11.5781 8.06788 11.7779 7.736C11.9778 7.40412 12.0865 7.02535 12.093 6.63799C12.098 6.39999 12.093 6.16099 12.093 5.90499C11.1619 5.92559 10.2447 5.67547 9.45299 5.18499C9.30682 5.09345 9.16624 4.99327 9.03199 4.88499C8.97141 4.84332 8.91988 4.78982 8.88052 4.72771C8.84116 4.66559 8.81477 4.59616 8.80295 4.52358C8.79113 4.451 8.79412 4.37679 8.81174 4.30539C8.82935 4.234 8.86124 4.16691 8.90547 4.10817C8.94969 4.04942 9.00535 4.00024 9.06909 3.96357C9.13283 3.9269 9.20333 3.90351 9.27635 3.8948C9.34936 3.8861 9.42339 3.89226 9.49396 3.91291C9.56453 3.93357 9.6302 3.96829 9.68699 4.01499C10.2362 4.43275 10.8856 4.69895 11.57 4.78699C11.863 4.82499 12.161 4.83199 12.458 4.85299C12.4829 4.35007 12.3557 3.85131 12.093 3.42176C11.8302 2.99221 11.4441 2.65182 10.985 2.44499C10.5956 2.26664 10.1683 2.1867 9.74075 2.21222C9.31319 2.23774 8.89846 2.36793 8.53302 2.59133C8.16759 2.81474 7.86265 3.12453 7.64503 3.49344C7.4274 3.86235 7.30377 4.27909 7.28499 4.70699C7.20678 6.89284 6.91709 9.06598 6.41999 11.196C6.39999 11.281 6.39399 11.37 6.37299 11.52C6.73432 11.3776 7.08723 11.2146 7.42999 11.032C7.56718 10.9149 7.65768 10.7523 7.68499 10.574C7.77699 10.197 7.97899 9.99799 8.30899 10.035C8.38761 10.0442 8.46339 10.0699 8.53139 10.1104C8.59938 10.1509 8.65805 10.2053 8.70356 10.2701C8.74906 10.3349 8.78037 10.4085 8.79544 10.4862C8.81051 10.5639 8.80899 10.6439 8.79099 10.721C8.77018 11.014 8.67053 11.2959 8.50258 11.5369C8.33464 11.7779 8.10466 11.969 7.83699 12.09C7.50799 12.249 7.16799 12.39 6.82899 12.528C6.11364 12.8182 5.5002 13.3137 5.06599 13.952C5.02908 14.0095 4.9869 14.0634 4.93999 14.113C4.85569 14.2173 4.73443 14.285 4.60144 14.3021C4.46845 14.3193 4.33398 14.2845 4.22599 14.205C4.16666 14.1692 4.11523 14.1218 4.07483 14.0655C4.03444 14.0092 4.00594 13.9453 3.99106 13.8777C3.97618 13.81 3.97524 13.74 3.98829 13.672C4.00135 13.604 4.02813 13.5393 4.06699 13.482C4.28399 13.161 4.55499 12.882 4.78599 12.566C4.91703 12.4136 5.01874 12.2384 5.08599 12.049C5.73142 9.62615 6.10703 7.13938 6.20599 4.63399C6.25113 3.67907 6.66413 2.77869 7.35843 2.12153C8.05272 1.46437 8.97443 1.10144 9.93039 1.10881C10.8863 1.11618 11.8023 1.49327 12.4864 2.16106C13.1705 2.82885 13.5696 3.73549 13.6 4.69099C13.6848 6.5663 13.9189 8.43186 14.3 10.27C14.312 10.326 14.319 10.384 14.327 10.44C14.3453 10.5123 14.3487 10.5875 14.3371 10.6612C14.3255 10.7349 14.2991 10.8054 14.2595 10.8686C14.2198 10.9318 14.1678 10.9863 14.1066 11.0288C14.0453 11.0713 13.976 11.101 13.903 11.116C13.8296 11.133 13.7535 11.1341 13.6797 11.1191C13.6059 11.1042 13.5362 11.0735 13.4753 11.0292C13.4144 10.9849 13.3637 10.928 13.3268 10.8624C13.2898 10.7968 13.2674 10.724 13.261 10.649C13.114 9.93199 12.992 9.20999 12.861 8.49099C12.849 8.42599 12.835 8.36099 12.815 8.25799C12.578 8.53299 12.365 8.77499 12.159 9.02199C12.1264 9.06781 12.1093 9.12279 12.11 9.17899C12.0883 9.65929 12.0947 10.1404 12.129 10.62C12.1584 10.7253 12.209 10.8235 12.2778 10.9084C12.3466 10.9934 12.4321 11.0634 12.529 11.114C12.949 11.344 13.429 11.463 13.829 11.714C14.3407 12.054 14.8246 12.4342 15.276 12.851C15.3275 12.9017 15.3682 12.9623 15.3957 13.0291C15.4233 13.0959 15.437 13.1676 15.4362 13.2399C15.4353 13.3121 15.4199 13.3835 15.3909 13.4497C15.3618 13.5158 15.3197 13.5754 15.267 13.6249C15.2143 13.6744 15.1522 13.7128 15.0844 13.7377C15.0166 13.7626 14.9444 13.7736 14.8722 13.77C14.8 13.7663 14.7293 13.7482 14.6643 13.7165C14.5994 13.6849 14.5414 13.6405 14.494 13.586C13.8794 12.9488 13.1147 12.476 12.27 12.211C11.8638 12.0928 11.5132 11.8334 11.2814 11.4795C11.0496 11.1256 10.952 10.7006 11.006 10.281C11.015 10.133 11.006 9.98099 11.006 9.83499C10.9992 9.8009 10.9895 9.76744 10.977 9.73499L10.968 9.73699Z" fill="#FDB813"/>
<path d="M23.097 8.087C22.96 8.121 22.852 8.15 22.743 8.173C22.669 8.19732 22.5909 8.20617 22.5134 8.19897C22.4359 8.19177 22.3607 8.16869 22.2925 8.13117C22.2243 8.09364 22.1645 8.04248 22.117 7.98085C22.0694 7.91923 22.035 7.84848 22.016 7.773C21.9909 7.62534 22.0227 7.47367 22.1049 7.34846C22.187 7.22325 22.3136 7.13377 22.459 7.098C22.7692 6.99028 23.0656 6.84628 23.342 6.669C23.611 6.48065 23.8293 6.22871 23.9774 5.9356C24.1256 5.6425 24.1989 5.31731 24.191 4.989C24.207 4.245 24.204 3.5 24.191 2.756C24.1923 2.54038 24.1511 2.32661 24.0697 2.12694C23.9883 1.92727 23.8683 1.7456 23.7167 1.59235C23.565 1.43909 23.3846 1.31725 23.1858 1.23379C22.9869 1.15034 22.7736 1.10691 22.558 1.106C22.18 1.098 21.803 1.097 21.425 1.106C20.9961 1.11015 20.5859 1.28218 20.2823 1.58519C19.9787 1.88821 19.8059 2.2981 19.801 2.727C19.788 3.494 19.785 4.262 19.801 5.027C19.8013 5.33779 19.8731 5.64434 20.0108 5.92298C20.1485 6.20162 20.3484 6.44488 20.595 6.634C20.693 6.70199 20.772 6.79391 20.8245 6.90102C20.877 7.00813 20.9013 7.12688 20.895 7.246C20.881 7.772 20.895 8.299 20.889 8.826C20.8983 9.18397 20.7911 9.53528 20.5835 9.82708C20.3759 10.1189 20.0792 10.3354 19.738 10.444C18.952 10.719 18.148 10.958 17.379 11.277C16.9349 11.4773 16.5179 11.733 16.138 12.038C15.809 12.287 15.529 12.356 15.287 12.13C15.045 11.904 15.06 11.569 15.356 11.258C15.7906 10.7977 16.3319 10.4515 16.932 10.25C17.699 9.986 18.467 9.725 19.232 9.457C19.708 9.291 19.787 9.174 19.789 8.684V8.482C19.8393 8.18789 19.8214 7.88615 19.7366 7.60007C19.6518 7.31399 19.5024 7.05121 19.3 6.832C18.8688 6.32875 18.6504 5.67745 18.691 5.016C18.684 4.26 18.681 3.505 18.691 2.749C18.6926 2.02237 18.9824 1.32607 19.4969 0.812927C20.0113 0.299783 20.7084 0.0117296 21.435 0.0119962C21.917 -0.0118681 22.4 -0.00385064 22.881 0.0359962C23.4935 0.0937925 24.0666 0.363424 24.5016 0.798423C24.9366 1.23342 25.2062 1.80654 25.264 2.419C25.3311 3.44621 25.3231 4.47695 25.24 5.503C25.1713 6.16015 24.8719 6.77168 24.395 7.229C24.333 7.295 24.225 7.366 24.225 7.434C24.2055 7.98099 24.2192 8.52866 24.266 9.074C24.282 9.211 24.541 9.364 24.719 9.43C25.512 9.721 26.319 9.97099 27.119 10.262C27.7299 10.4683 28.278 10.8274 28.711 11.3053C29.144 11.7831 29.4476 12.3637 29.593 12.992C29.6244 13.0658 29.6397 13.1455 29.6379 13.2257C29.6361 13.3059 29.6172 13.3848 29.5824 13.4571C29.5477 13.5294 29.4979 13.5934 29.4365 13.645C29.375 13.6965 29.3032 13.7344 29.226 13.756C28.91 13.835 28.643 13.651 28.537 13.256C28.4243 12.7862 28.1903 12.3541 27.8583 12.0031C27.5262 11.6522 27.1079 11.3945 26.645 11.256C25.887 11.001 25.132 10.737 24.375 10.479C23.9932 10.3838 23.6572 10.157 23.426 9.83862C23.1948 9.52021 23.0833 9.1305 23.111 8.738C23.097 8.523 23.097 8.322 23.097 8.087Z" fill="#FDB813"/>
<path d="M0.00199688 18.015C0.00199688 17.202 0.0179969 16.388 0.00199688 15.576C-0.0106255 15.3402 0.0451342 15.1057 0.162573 14.9008C0.280011 14.6959 0.45413 14.5293 0.663997 14.421C1.10502 14.1431 1.63407 14.0403 2.14707 14.1328C2.66006 14.2254 3.11986 14.5065 3.436 14.921C3.90433 15.5899 4.18379 16.3727 4.245 17.187C4.313 17.64 4.35 18.097 4.385 18.553C4.39777 18.6296 4.39507 18.708 4.37707 18.7835C4.35906 18.8591 4.32612 18.9303 4.28018 18.9929C4.23423 19.0555 4.17622 19.1083 4.10955 19.1482C4.04288 19.1881 3.96891 19.2142 3.892 19.225C3.558 19.254 3.342 19.025 3.292 18.625C3.192 17.892 3.109 17.15 2.957 16.425C2.87111 16.1063 2.7233 15.8076 2.522 15.546C2.42275 15.4104 2.28633 15.3065 2.12926 15.2469C1.97219 15.1873 1.8012 15.1744 1.637 15.21C1.204 15.271 1.1 15.399 1.101 15.834C1.101 17.3 1.101 18.767 1.117 20.234C1.12101 20.4714 1.17022 20.7059 1.262 20.925C2.017 22.725 2.806 24.51 3.568 26.311C3.83469 26.9345 4.25722 27.4789 4.795 27.892C5.98 28.83 7.167 29.765 8.369 30.683C8.52358 30.7804 8.64735 30.9197 8.72594 31.0847C8.80453 31.2497 8.83472 31.4335 8.813 31.615C8.786 31.875 8.813 32.141 8.806 32.404C8.81115 32.4786 8.80113 32.5534 8.77654 32.624C8.75194 32.6946 8.71329 32.7595 8.66291 32.8148C8.61252 32.87 8.55146 32.9145 8.48342 32.9454C8.41537 32.9764 8.34174 32.9933 8.267 32.995C8.19178 33.0009 8.11618 32.99 8.04569 32.9631C7.97521 32.9362 7.9116 32.8939 7.85951 32.8393C7.80741 32.7847 7.76813 32.7192 7.74452 32.6475C7.72091 32.5759 7.71355 32.4998 7.723 32.425C7.76669 32.1353 7.71733 31.8392 7.58201 31.5793C7.44669 31.3195 7.2324 31.1093 6.97 30.979C5.99 30.264 5.052 29.493 4.1 28.742C3.4199 28.2134 2.88661 27.5193 2.551 26.726C1.763 24.863 0.950997 23.009 0.160997 21.147C0.070919 20.9268 0.0224333 20.6918 0.0179969 20.454C-0.00400312 19.64 0.00199688 18.828 0.00199688 18.015Z" fill="#FDB813"/>
<path d="M28.499 21.572C28.2358 21.3584 27.9166 21.2252 27.5796 21.1883C27.2427 21.1515 26.9022 21.2124 26.599 21.364C26.2009 21.562 25.8329 21.8156 25.506 22.117C24.752 22.817 24.035 23.56 23.306 24.291C23.0125 24.6035 22.6438 24.8356 22.235 24.965C21.4659 25.1861 20.7645 25.5966 20.1951 26.159C19.6257 26.7214 19.2066 27.4176 18.976 28.184C18.8189 28.7089 18.7318 29.2523 18.717 29.8C18.675 30.634 18.707 31.472 18.705 32.307C18.705 32.743 18.505 32.995 18.163 33C17.821 33.005 17.602 32.752 17.607 32.323C17.5673 31.2135 17.591 30.1027 17.678 28.996C17.7966 27.8478 18.2465 26.7588 18.9728 25.8617C19.6991 24.9645 20.6706 24.2979 21.769 23.943C22.078 23.8301 22.3593 23.6525 22.594 23.422C23.476 22.555 24.319 21.639 25.274 20.861C25.8697 20.3156 26.6557 20.0259 27.4629 20.0541C28.27 20.0824 29.0339 20.4263 29.59 21.012C29.944 21.36 29.957 21.631 29.601 21.984C28.0543 23.5313 26.5063 25.077 24.957 26.621C24.874 26.7399 24.7498 26.8239 24.6085 26.8566C24.4672 26.8893 24.3188 26.8684 24.192 26.798C24.0817 26.7441 23.9951 26.6516 23.9486 26.538C23.9022 26.4244 23.8991 26.2977 23.94 26.182C24.0011 26.024 24.0984 25.8826 24.224 25.769C25.538 24.4457 26.8573 23.127 28.182 21.813C28.2827 21.7263 28.3885 21.6458 28.499 21.572Z" fill="#FDB813"/>
<path d="M4.54698 21.527L8.71998 25.717C8.81242 25.8021 8.89833 25.894 8.97698 25.992C9.05724 26.0986 9.09449 26.2316 9.08134 26.3644C9.06818 26.4972 9.0056 26.6202 8.90598 26.709C8.81621 26.8003 8.69563 26.8547 8.56784 26.8617C8.44004 26.8688 8.31421 26.8279 8.21498 26.747C8.12504 26.6764 8.04109 26.5985 7.96398 26.514L3.48998 22.048C3.04398 21.603 3.04698 21.36 3.50498 20.936C3.98908 20.4539 4.62325 20.1514 5.3026 20.0787C5.98195 20.006 6.66578 20.1673 7.24098 20.536C7.68734 20.8138 8.10212 21.1394 8.47798 21.507C9.18598 22.173 9.85298 22.882 10.556 23.558C10.6932 23.6926 10.8585 23.795 11.04 23.858C12.3139 24.2527 13.4263 25.0482 14.2117 26.126C14.9971 27.2038 15.4135 28.5065 15.399 29.84V32.314C15.399 32.746 15.19 32.999 14.849 32.998C14.508 32.997 14.299 32.746 14.299 32.312V29.838C14.3232 28.7819 14.0105 27.7456 13.4062 26.8791C12.8019 26.0127 11.9374 25.3612 10.938 25.019C10.3841 24.8221 9.8867 24.4929 9.48898 24.06C8.87998 23.438 8.26198 22.826 7.63998 22.216C7.21515 21.7459 6.66872 21.4023 6.06098 21.223C5.8021 21.1555 5.53124 21.1478 5.26893 21.2004C5.00662 21.2531 4.75973 21.3648 4.54698 21.527Z" fill="#FDB813"/>
<path d="M18.96 19.693C18.79 19.727 18.66 19.762 18.52 19.779C18.3769 19.8003 18.2311 19.7658 18.1127 19.6826C17.9943 19.5994 17.9124 19.4739 17.884 19.332C17.8612 19.1948 17.8912 19.054 17.968 18.9381C18.0448 18.8221 18.1627 18.7395 18.298 18.707C18.374 18.685 18.454 18.673 18.532 18.653C18.8926 18.5685 19.214 18.3643 19.4437 18.0738C19.6734 17.7832 19.798 17.4234 19.797 17.053C19.803 16.6864 19.803 16.3197 19.797 15.953C19.7962 15.5154 19.6216 15.096 19.3116 14.7872C19.0016 14.4783 18.5816 14.3052 18.144 14.306C17.7064 14.3068 17.287 14.4814 16.9782 14.7914C16.6693 15.1014 16.4962 15.5214 16.497 15.959C16.492 16.259 16.506 16.559 16.497 16.853C16.473 17.1275 16.5149 17.4038 16.6192 17.6588C16.7236 17.9138 16.8874 18.1401 17.097 18.319C17.1927 18.4002 17.2643 18.506 17.304 18.625C17.4777 19.1426 17.4459 19.7071 17.2151 20.2018C16.9843 20.6965 16.5722 21.0836 16.064 21.283C15.804 21.402 15.543 21.519 15.288 21.65C14.9085 21.8295 14.5768 22.096 14.3198 22.4279C14.0627 22.7598 13.8877 23.1477 13.809 23.56C13.797 23.616 13.785 23.673 13.77 23.728C13.7446 23.8705 13.6641 23.9972 13.5461 24.0808C13.428 24.1644 13.2818 24.1983 13.139 24.175C13.0675 24.164 12.9991 24.1384 12.9379 24.1C12.8766 24.0615 12.8239 24.011 12.7829 23.9514C12.7419 23.8919 12.7135 23.8246 12.6994 23.7537C12.6853 23.6828 12.6858 23.6097 12.701 23.539C12.772 22.9797 12.9714 22.4444 13.2837 21.9749C13.5959 21.5055 14.0126 21.1147 14.501 20.833C14.901 20.592 15.34 20.419 15.762 20.213C15.882 20.1512 15.9869 20.0635 16.0691 19.9564C16.1513 19.8492 16.2088 19.7252 16.2375 19.5932C16.2662 19.4613 16.2653 19.3246 16.235 19.193C16.2046 19.0614 16.1456 18.9381 16.062 18.832C15.6342 18.3452 15.4003 17.7181 15.405 17.07C15.3812 16.5215 15.4026 15.972 15.469 15.427C15.5899 14.7603 15.9559 14.163 16.4949 13.7526C17.034 13.3421 17.7072 13.1482 18.382 13.209C19.0512 13.2668 19.676 13.5675 20.1386 14.0544C20.6012 14.5413 20.8696 15.1808 20.893 15.852C20.9342 16.411 20.913 16.9728 20.83 17.527C20.7163 17.9902 20.5157 18.4276 20.239 18.816C20.1573 18.926 20.1002 19.0523 20.0716 19.1863C20.043 19.3202 20.0436 19.4588 20.0732 19.5926C20.1029 19.7263 20.1611 19.8521 20.2437 19.9614C20.3263 20.0707 20.4314 20.1609 20.552 20.226C21.12 20.517 21.679 20.826 22.233 21.142C22.3792 21.2333 22.5062 21.3522 22.607 21.492C22.6973 21.5917 22.7446 21.723 22.7384 21.8573C22.7322 21.9917 22.6731 22.1181 22.574 22.209C22.5327 22.2621 22.4808 22.3059 22.4216 22.3376C22.3623 22.3693 22.2971 22.3882 22.2301 22.3931C22.163 22.398 22.0957 22.3888 22.0325 22.366C21.9693 22.3433 21.9115 22.3075 21.863 22.261C21.3087 21.7984 20.6802 21.4329 20.004 21.18C19.7099 21.0524 19.4567 20.846 19.2725 20.5836C19.0883 20.3212 18.9801 20.013 18.96 19.693Z" fill="#FDB813"/>
</svg>
