<svg width="28" height="33" viewBox="0 0 28 33" fill="none" xmlns="http://www.w3.org/2000/svg">
<path d="M25.77 0C26.1242 0.0743777 26.4493 0.249913 26.7058 0.505328C26.9622 0.760743 27.1391 1.08507 27.215 1.439C27.249 1.63977 27.2624 1.8435 27.255 2.047C27.255 10.0803 27.255 18.1137 27.255 26.147C27.255 26.817 27.114 26.961 26.446 26.961H4.34598C3.81116 26.9203 3.27744 27.0528 2.82366 27.3387C2.36988 27.6247 2.0201 28.049 1.82598 28.549C1.68719 28.9144 1.63705 29.3075 1.67969 29.696C1.72233 30.0845 1.85652 30.4574 2.07125 30.784C2.28598 31.1106 2.57513 31.3816 2.91493 31.5747C3.25474 31.7678 3.63551 31.8776 4.02598 31.895C4.16598 31.902 4.30498 31.895 4.44498 31.895H26.448C27.001 31.895 27.259 32.074 27.254 32.45C27.249 32.826 26.992 32.993 26.432 32.993H4.26498C3.44155 33.0268 2.632 32.7731 1.97515 32.2754C1.31831 31.7777 0.855109 31.0669 0.664978 30.265C0.592024 29.9294 0.558464 29.5864 0.564978 29.243C0.564978 21.081 0.564978 12.918 0.564978 4.754C0.52204 3.61892 0.902985 2.50847 1.63367 1.63879C2.36435 0.7691 3.39249 0.202405 4.51798 0.049C4.55697 0.0367656 4.59453 0.0203361 4.62998 0L25.77 0ZM26.158 25.862V1.934C26.158 1.359 25.891 1.099 25.299 1.099H5.25598C4.77893 1.08447 4.30398 1.16802 3.86053 1.34448C3.41709 1.52094 3.01458 1.78655 2.67795 2.12487C2.34131 2.46319 2.07772 2.86702 1.90347 3.31134C1.72923 3.75567 1.64806 4.23103 1.66498 4.708C1.66165 11.9793 1.66165 19.2507 1.66498 26.522C1.66498 26.608 1.67698 26.702 1.68698 26.849C2.10649 26.4844 2.59546 26.2084 3.12444 26.0378C3.65342 25.8671 4.21147 25.8053 4.76498 25.856C11.7463 25.87 18.728 25.8727 25.71 25.864L26.158 25.862Z" fill="#FDB813"/>
<path d="M13.864 30.138H4.03699C3.9193 30.1434 3.80138 30.1411 3.68399 30.131C3.55847 30.125 3.4398 30.072 3.35159 29.9825C3.26339 29.893 3.21212 29.7736 3.20799 29.648C3.18705 29.5241 3.21348 29.397 3.28204 29.2917C3.3506 29.1865 3.45625 29.1109 3.57799 29.08C3.70238 29.0483 3.83076 29.0352 3.95899 29.041H23.707C23.8245 29.0353 23.9422 29.043 24.058 29.064C24.1858 29.0913 24.2995 29.1639 24.3779 29.2685C24.4563 29.3731 24.4942 29.5026 24.4845 29.6329C24.4749 29.7633 24.4184 29.8858 24.3255 29.9777C24.2325 30.0696 24.1094 30.1248 23.979 30.133C23.872 30.143 23.764 30.138 23.657 30.138H13.864Z" fill="#FDB813"/>
<path d="M13.725 20.318C12.1376 20.315 10.5866 19.8422 9.26753 18.9592C7.94843 18.0761 6.92026 16.8223 6.31258 15.3559C5.70491 13.8894 5.54493 12.2759 5.85282 10.7186C6.1607 9.16138 6.92267 7.73012 8.04269 6.60524C9.1627 5.48035 10.5906 4.71219 12.1465 4.39756C13.7024 4.08292 15.3166 4.2359 16.7857 4.83721C18.2548 5.43852 19.513 6.46125 20.4018 7.7765C21.2906 9.09175 21.7701 10.6407 21.78 12.228C21.7838 13.2885 21.5783 14.3394 21.1753 15.3204C20.7723 16.3013 20.1796 17.1931 19.4314 17.9446C18.6831 18.6962 17.7939 19.2927 16.8147 19.6999C15.8355 20.1072 14.7855 20.3172 13.725 20.318ZM20.679 12.297C20.684 10.9194 20.2789 9.57135 19.5152 8.42469C18.7516 7.27804 17.6639 6.38462 16.3907 5.85823C15.1176 5.33183 13.7166 5.19627 12.3661 5.46882C11.0156 5.74136 9.77686 6.40968 8.80752 7.38865C7.83817 8.36762 7.18213 9.61295 6.92295 10.966C6.66376 12.3191 6.81316 13.7187 7.35212 14.9866C7.89107 16.2545 8.7952 17.3333 9.94934 18.0856C11.1035 18.8379 12.4554 19.2297 13.833 19.211C15.651 19.181 17.3852 18.4408 18.6646 17.1488C19.9439 15.8567 20.667 14.1153 20.679 12.297Z" fill="#FDB813"/>
<path d="M15.384 13.916V15.886C15.4012 16.2535 15.2878 16.6151 15.064 16.907C14.8031 17.1655 14.4729 17.3428 14.1133 17.4175C13.7538 17.4922 13.3803 17.4612 13.038 17.328C12.7414 17.2374 12.4853 17.047 12.3131 16.7891C12.1408 16.5312 12.0631 16.2217 12.093 15.913C12.087 15.261 12.093 14.613 12.093 13.913H11.035C10.659 13.913 10.283 13.922 9.90799 13.905C9.60424 13.8971 9.31251 13.7847 9.08206 13.5866C8.8516 13.3886 8.69652 13.1171 8.64299 12.818C8.58968 12.5008 8.58094 12.1777 8.61699 11.858C8.65232 11.5115 8.81825 11.1914 9.08107 10.9627C9.34388 10.7341 9.68388 10.614 10.032 10.627C10.59 10.617 11.149 10.627 11.706 10.627H12.091V9.60702C12.091 9.18902 12.08 8.76903 12.116 8.35303C12.1377 8.07713 12.2487 7.81583 12.4322 7.60868C12.6157 7.40153 12.8617 7.25982 13.133 7.20502C13.4904 7.13743 13.8564 7.12764 14.217 7.17602C14.5465 7.22028 14.8477 7.3856 15.0619 7.63978C15.2762 7.89397 15.3881 8.21881 15.376 8.55102C15.393 9.09802 15.381 9.64502 15.381 10.192V10.622C15.512 10.628 15.624 10.637 15.737 10.637C16.296 10.637 16.854 10.632 17.411 10.637C17.6056 10.6276 17.8 10.659 17.9817 10.729C18.1635 10.799 18.3287 10.9063 18.4666 11.0438C18.6046 11.1813 18.7124 11.3461 18.7831 11.5276C18.8537 11.7091 18.8857 11.9034 18.877 12.098C18.8865 12.3121 18.8775 12.5265 18.85 12.739C18.8092 13.0677 18.6488 13.3699 18.3995 13.5879C18.1501 13.806 17.8292 13.9245 17.498 13.921C16.817 13.922 16.131 13.916 15.384 13.916ZM16.152 12.816H17.311C17.711 12.816 17.779 12.746 17.781 12.316C17.781 11.816 17.721 11.735 17.32 11.733H15C14.462 11.733 14.283 11.555 14.281 11.021C14.281 10.248 14.281 9.47403 14.281 8.70103C14.281 8.29403 14.21 8.23902 13.736 8.23902C13.262 8.23902 13.201 8.29702 13.199 8.70902V11.029C13.199 11.545 13.014 11.729 12.499 11.735H10.15C9.76099 11.735 9.69599 11.821 9.69699 12.293C9.69699 12.744 9.75699 12.818 10.141 12.82H12.461C13.012 12.82 13.195 13.004 13.197 13.556V15.842C13.197 16.267 13.256 16.316 13.726 16.316C14.226 16.316 14.279 16.271 14.28 15.835V13.579C14.28 12.99 14.459 12.819 15.053 12.818L16.152 12.816Z" fill="#FDB813"/>
</svg>
