<svg width="21" height="23" viewBox="0 0 21 23" fill="none" xmlns="http://www.w3.org/2000/svg">
<path d="M14.528 22.4C13.2622 22.4 12.0248 22.0246 10.9723 21.3214C9.91987 20.6181 9.09957 19.6186 8.61516 18.4492C8.13076 17.2797 8.00402 15.9929 8.25097 14.7514C8.49791 13.5099 9.10745 12.3696 10.0025 11.4745C10.8976 10.5794 12.0379 9.9699 13.2794 9.72295C14.5209 9.47601 15.8077 9.60275 16.9772 10.0871C18.1466 10.5716 19.1462 11.3919 19.8494 12.4443C20.5526 13.4968 20.928 14.7342 20.928 16C20.928 17.6974 20.2537 19.3252 19.0535 20.5255C17.8532 21.7257 16.2254 22.4 14.528 22.4ZM14.528 11.2C13.5786 11.2 12.6506 11.4815 11.8613 12.0089C11.0719 12.5364 10.4567 13.286 10.0934 14.1631C9.73007 15.0402 9.63501 16.0053 9.82022 16.9364C10.0054 17.8675 10.4626 18.7228 11.1339 19.3941C11.8052 20.0654 12.6605 20.5225 13.5916 20.7077C14.5227 20.893 15.4878 20.7979 16.3649 20.4346C17.242 20.0713 17.9916 19.4561 18.519 18.6667C19.0465 17.8774 19.328 16.9493 19.328 16C19.328 14.7269 18.8223 13.506 17.9221 12.6059C17.0219 11.7057 15.801 11.2 14.528 11.2Z" fill="white"/>
<path d="M15.8 18.4L13.728 16.328V12.8H15.328V15.672L16.928 17.272L15.8 18.4Z" fill="white"/>
<path d="M20.128 3.2C20.128 2.98988 20.0866 2.78183 20.0062 2.58771C19.9258 2.39359 19.8079 2.2172 19.6593 2.06863C19.5108 1.92006 19.3344 1.8022 19.1403 1.72179C18.9462 1.64139 18.7381 1.6 18.528 1.6H15.328V0H13.728V1.6H7.32798V0H5.72798V1.6H2.52798C2.10363 1.6 1.69667 1.76857 1.39661 2.06863C1.09655 2.36869 0.927979 2.77565 0.927979 3.2V19.2C0.927979 19.6243 1.09655 20.0313 1.39661 20.3314C1.69667 20.6314 2.10363 20.8 2.52798 20.8H5.72798V19.2H2.52798V3.2H5.72798V4.8H7.32798V3.2H13.728V4.8H15.328V3.2H18.528V8H20.128V3.2Z" fill="white"/>
</svg>
